<mxfile host="Electron" modified="2024-05-07T07:21:20.888Z" agent="Mozilla/5.0 (X11; Linux x86_64) AppleWebKit/537.36 (KHTML, like Gecko) draw.io/22.0.3 Chrome/114.0.5735.289 Electron/25.8.4 Safari/537.36" etag="JAhx73ZcmOJBTiWd-lOz" version="22.0.3" type="device">
  <diagram name="Page-1" id="3a5vFD-sT-ybUSw_GCuG">
    <mxGraphModel dx="1669" dy="566" grid="1" gridSize="10" guides="1" tooltips="1" connect="1" arrows="1" fold="1" page="1" pageScale="1" pageWidth="850" pageHeight="1100" math="0" shadow="0">
      <root>
        <mxCell id="0" />
        <mxCell id="1" parent="0" />
        <mxCell id="1iKEoxfAAZQPxBv_pSPJ-11" value="" style="endArrow=classic;startArrow=classic;html=1;rounded=0;" parent="1" edge="1">
          <mxGeometry width="50" height="50" relative="1" as="geometry">
            <mxPoint x="-120" y="80" as="sourcePoint" />
            <mxPoint y="80" as="targetPoint" />
          </mxGeometry>
        </mxCell>
        <mxCell id="1iKEoxfAAZQPxBv_pSPJ-12" value="" style="endArrow=none;html=1;rounded=0;" parent="1" edge="1">
          <mxGeometry width="50" height="50" relative="1" as="geometry">
            <mxPoint x="-120" y="85" as="sourcePoint" />
            <mxPoint x="-120" y="75" as="targetPoint" />
          </mxGeometry>
        </mxCell>
        <mxCell id="1iKEoxfAAZQPxBv_pSPJ-13" value="" style="endArrow=none;html=1;rounded=0;" parent="1" edge="1">
          <mxGeometry width="50" height="50" relative="1" as="geometry">
            <mxPoint y="85" as="sourcePoint" />
            <mxPoint y="75" as="targetPoint" />
          </mxGeometry>
        </mxCell>
        <mxCell id="1iKEoxfAAZQPxBv_pSPJ-14" value="" style="endArrow=classic;startArrow=classic;html=1;rounded=0;" parent="1" edge="1">
          <mxGeometry width="50" height="50" relative="1" as="geometry">
            <mxPoint y="80" as="sourcePoint" />
            <mxPoint x="120" y="80" as="targetPoint" />
          </mxGeometry>
        </mxCell>
        <mxCell id="1iKEoxfAAZQPxBv_pSPJ-16" value="" style="endArrow=none;html=1;rounded=0;" parent="1" edge="1">
          <mxGeometry width="50" height="50" relative="1" as="geometry">
            <mxPoint x="199.86" y="85" as="sourcePoint" />
            <mxPoint x="199.86" y="75" as="targetPoint" />
          </mxGeometry>
        </mxCell>
        <mxCell id="1iKEoxfAAZQPxBv_pSPJ-17" value="" style="endArrow=classic;startArrow=classic;html=1;rounded=0;" parent="1" edge="1">
          <mxGeometry width="50" height="50" relative="1" as="geometry">
            <mxPoint x="120" y="80" as="sourcePoint" />
            <mxPoint x="200" y="80" as="targetPoint" />
          </mxGeometry>
        </mxCell>
        <mxCell id="1iKEoxfAAZQPxBv_pSPJ-18" value="" style="endArrow=classic;startArrow=classic;html=1;rounded=0;" parent="1" edge="1">
          <mxGeometry width="50" height="50" relative="1" as="geometry">
            <mxPoint x="360" y="80" as="sourcePoint" />
            <mxPoint x="400" y="80" as="targetPoint" />
          </mxGeometry>
        </mxCell>
        <mxCell id="1iKEoxfAAZQPxBv_pSPJ-19" value="" style="endArrow=classic;startArrow=classic;html=1;rounded=0;" parent="1" edge="1">
          <mxGeometry width="50" height="50" relative="1" as="geometry">
            <mxPoint x="400" y="80" as="sourcePoint" />
            <mxPoint x="440" y="80" as="targetPoint" />
          </mxGeometry>
        </mxCell>
        <mxCell id="1iKEoxfAAZQPxBv_pSPJ-20" value="" style="endArrow=classic;startArrow=classic;html=1;rounded=0;" parent="1" edge="1">
          <mxGeometry width="50" height="50" relative="1" as="geometry">
            <mxPoint x="440" y="80" as="sourcePoint" />
            <mxPoint x="480" y="80" as="targetPoint" />
          </mxGeometry>
        </mxCell>
        <mxCell id="1iKEoxfAAZQPxBv_pSPJ-21" value="" style="endArrow=classic;startArrow=classic;html=1;rounded=0;" parent="1" edge="1">
          <mxGeometry width="50" height="50" relative="1" as="geometry">
            <mxPoint x="480" y="80" as="sourcePoint" />
            <mxPoint x="560" y="80" as="targetPoint" />
          </mxGeometry>
        </mxCell>
        <mxCell id="1iKEoxfAAZQPxBv_pSPJ-22" value="" style="endArrow=classic;startArrow=classic;html=1;rounded=0;" parent="1" edge="1">
          <mxGeometry width="50" height="50" relative="1" as="geometry">
            <mxPoint x="560" y="80" as="sourcePoint" />
            <mxPoint x="720" y="80" as="targetPoint" />
          </mxGeometry>
        </mxCell>
        <mxCell id="1iKEoxfAAZQPxBv_pSPJ-23" value="" style="endArrow=classic;startArrow=classic;html=1;rounded=0;" parent="1" edge="1">
          <mxGeometry width="50" height="50" relative="1" as="geometry">
            <mxPoint x="880" y="80" as="sourcePoint" />
            <mxPoint x="960" y="80" as="targetPoint" />
          </mxGeometry>
        </mxCell>
        <mxCell id="1iKEoxfAAZQPxBv_pSPJ-24" value="" style="endArrow=none;html=1;rounded=0;" parent="1" edge="1">
          <mxGeometry width="50" height="50" relative="1" as="geometry">
            <mxPoint x="200" y="85" as="sourcePoint" />
            <mxPoint x="200" y="75" as="targetPoint" />
          </mxGeometry>
        </mxCell>
        <mxCell id="1iKEoxfAAZQPxBv_pSPJ-25" value="" style="endArrow=none;html=1;rounded=0;" parent="1" edge="1">
          <mxGeometry width="50" height="50" relative="1" as="geometry">
            <mxPoint x="399.84" y="85" as="sourcePoint" />
            <mxPoint x="399.84" y="75" as="targetPoint" />
          </mxGeometry>
        </mxCell>
        <mxCell id="1iKEoxfAAZQPxBv_pSPJ-26" value="" style="endArrow=none;html=1;rounded=0;" parent="1" edge="1">
          <mxGeometry width="50" height="50" relative="1" as="geometry">
            <mxPoint x="440" y="85" as="sourcePoint" />
            <mxPoint x="440" y="75" as="targetPoint" />
          </mxGeometry>
        </mxCell>
        <mxCell id="1iKEoxfAAZQPxBv_pSPJ-28" value="" style="endArrow=none;html=1;rounded=0;" parent="1" edge="1">
          <mxGeometry width="50" height="50" relative="1" as="geometry">
            <mxPoint x="480" y="85" as="sourcePoint" />
            <mxPoint x="480" y="75" as="targetPoint" />
          </mxGeometry>
        </mxCell>
        <mxCell id="1iKEoxfAAZQPxBv_pSPJ-29" value="" style="endArrow=none;html=1;rounded=0;" parent="1" edge="1">
          <mxGeometry width="50" height="50" relative="1" as="geometry">
            <mxPoint x="559.84" y="85" as="sourcePoint" />
            <mxPoint x="559.84" y="75" as="targetPoint" />
          </mxGeometry>
        </mxCell>
        <mxCell id="1iKEoxfAAZQPxBv_pSPJ-30" value="" style="endArrow=none;html=1;rounded=0;" parent="1" edge="1">
          <mxGeometry width="50" height="50" relative="1" as="geometry">
            <mxPoint x="880" y="85" as="sourcePoint" />
            <mxPoint x="880" y="75" as="targetPoint" />
          </mxGeometry>
        </mxCell>
        <mxCell id="1iKEoxfAAZQPxBv_pSPJ-31" value="" style="endArrow=none;html=1;rounded=0;" parent="1" edge="1">
          <mxGeometry width="50" height="50" relative="1" as="geometry">
            <mxPoint x="960" y="85" as="sourcePoint" />
            <mxPoint x="960" y="75" as="targetPoint" />
          </mxGeometry>
        </mxCell>
        <mxCell id="1iKEoxfAAZQPxBv_pSPJ-32" value="&lt;font style=&quot;font-size: 12px;&quot;&gt;Destination &lt;br style=&quot;&quot;&gt;Address&lt;/font&gt;" style="rounded=0;whiteSpace=wrap;html=1;" parent="1" vertex="1">
          <mxGeometry x="-120" y="90" width="120" height="40" as="geometry" />
        </mxCell>
        <mxCell id="1iKEoxfAAZQPxBv_pSPJ-33" value="&lt;font style=&quot;font-size: 12px;&quot;&gt;Source &lt;br&gt;Address&lt;/font&gt;" style="rounded=0;whiteSpace=wrap;html=1;" parent="1" vertex="1">
          <mxGeometry y="90" width="120" height="40" as="geometry" />
        </mxCell>
        <mxCell id="1iKEoxfAAZQPxBv_pSPJ-34" value="&lt;font style=&quot;font-size: 12px;&quot;&gt;VLAN-Tag&lt;/font&gt;" style="rounded=0;whiteSpace=wrap;html=1;" parent="1" vertex="1">
          <mxGeometry x="120" y="90" width="80" height="40" as="geometry" />
        </mxCell>
        <mxCell id="1iKEoxfAAZQPxBv_pSPJ-35" value="&lt;font style=&quot;font-size: 12px;&quot;&gt;Ether-Type&lt;/font&gt;" style="rounded=0;whiteSpace=wrap;html=1;" parent="1" vertex="1">
          <mxGeometry x="360" y="90" width="40" height="40" as="geometry" />
        </mxCell>
        <mxCell id="1iKEoxfAAZQPxBv_pSPJ-36" value="&lt;font style=&quot;font-size: 12px;&quot;&gt;AppID&lt;/font&gt;" style="rounded=0;whiteSpace=wrap;html=1;" parent="1" vertex="1">
          <mxGeometry x="400" y="90" width="40" height="40" as="geometry" />
        </mxCell>
        <mxCell id="1iKEoxfAAZQPxBv_pSPJ-37" value="Length" style="rounded=0;whiteSpace=wrap;html=1;" parent="1" vertex="1">
          <mxGeometry x="440" y="90" width="40" height="40" as="geometry" />
        </mxCell>
        <mxCell id="1iKEoxfAAZQPxBv_pSPJ-38" value="&lt;font style=&quot;font-size: 12px;&quot;&gt;Reserved&lt;/font&gt;" style="rounded=0;whiteSpace=wrap;html=1;" parent="1" vertex="1">
          <mxGeometry x="480" y="90" width="80" height="40" as="geometry" />
        </mxCell>
        <mxCell id="1iKEoxfAAZQPxBv_pSPJ-39" value="&lt;font style=&quot;font-size: 12px;&quot;&gt;GPDU&lt;/font&gt;" style="rounded=0;whiteSpace=wrap;html=1;" parent="1" vertex="1">
          <mxGeometry x="560" y="90" width="160" height="40" as="geometry" />
        </mxCell>
        <mxCell id="1iKEoxfAAZQPxBv_pSPJ-40" value="&lt;font style=&quot;font-size: 12px;&quot;&gt;FCS&lt;/font&gt;" style="rounded=0;whiteSpace=wrap;html=1;" parent="1" vertex="1">
          <mxGeometry x="880" y="90" width="80" height="40" as="geometry" />
        </mxCell>
        <mxCell id="1iKEoxfAAZQPxBv_pSPJ-43" value="6 Byte" style="text;html=1;strokeColor=none;fillColor=none;align=center;verticalAlign=middle;whiteSpace=wrap;rounded=0;fontSize=10;" parent="1" vertex="1">
          <mxGeometry x="-90" y="65" width="60" height="10" as="geometry" />
        </mxCell>
        <mxCell id="1iKEoxfAAZQPxBv_pSPJ-44" value="6 Byte" style="text;html=1;strokeColor=none;fillColor=none;align=center;verticalAlign=middle;whiteSpace=wrap;rounded=0;fontSize=10;" parent="1" vertex="1">
          <mxGeometry x="30" y="65" width="60" height="10" as="geometry" />
        </mxCell>
        <mxCell id="1iKEoxfAAZQPxBv_pSPJ-45" value="4 Byte" style="text;html=1;strokeColor=none;fillColor=none;align=center;verticalAlign=middle;whiteSpace=wrap;rounded=0;fontSize=10;" parent="1" vertex="1">
          <mxGeometry x="130" y="65" width="60" height="10" as="geometry" />
        </mxCell>
        <mxCell id="1iKEoxfAAZQPxBv_pSPJ-46" value="2 Byte" style="text;html=1;strokeColor=none;fillColor=none;align=center;verticalAlign=middle;whiteSpace=wrap;rounded=0;fontSize=10;" parent="1" vertex="1">
          <mxGeometry x="360" y="65" width="40" height="10" as="geometry" />
        </mxCell>
        <mxCell id="1iKEoxfAAZQPxBv_pSPJ-47" value="2 Byte" style="text;html=1;strokeColor=none;fillColor=none;align=center;verticalAlign=middle;whiteSpace=wrap;rounded=0;fontSize=10;" parent="1" vertex="1">
          <mxGeometry x="400" y="65" width="40" height="10" as="geometry" />
        </mxCell>
        <mxCell id="1iKEoxfAAZQPxBv_pSPJ-49" value="2 Byte" style="text;html=1;strokeColor=none;fillColor=none;align=center;verticalAlign=middle;whiteSpace=wrap;rounded=0;fontSize=10;" parent="1" vertex="1">
          <mxGeometry x="440" y="65" width="40" height="10" as="geometry" />
        </mxCell>
        <mxCell id="1iKEoxfAAZQPxBv_pSPJ-50" value="4 Byte" style="text;html=1;strokeColor=none;fillColor=none;align=center;verticalAlign=middle;whiteSpace=wrap;rounded=0;fontSize=10;" parent="1" vertex="1">
          <mxGeometry x="480" y="65" width="80" height="10" as="geometry" />
        </mxCell>
        <mxCell id="1iKEoxfAAZQPxBv_pSPJ-51" value="46 to 1492&amp;nbsp; Byte" style="text;html=1;strokeColor=none;fillColor=none;align=center;verticalAlign=middle;whiteSpace=wrap;rounded=0;fontSize=10;" parent="1" vertex="1">
          <mxGeometry x="560" y="65" width="160" height="10" as="geometry" />
        </mxCell>
        <mxCell id="1iKEoxfAAZQPxBv_pSPJ-53" value="4 Byte" style="text;html=1;strokeColor=none;fillColor=none;align=center;verticalAlign=middle;whiteSpace=wrap;rounded=0;fontSize=10;" parent="1" vertex="1">
          <mxGeometry x="880" y="65" width="80" height="10" as="geometry" />
        </mxCell>
        <mxCell id="1iKEoxfAAZQPxBv_pSPJ-54" value="" style="endArrow=none;html=1;rounded=0;exitX=0;exitY=1;exitDx=0;exitDy=0;entryX=0;entryY=0;entryDx=0;entryDy=0;endFill=0;" parent="1" source="1iKEoxfAAZQPxBv_pSPJ-39" target="u5pXzfB2RRVTX9O-Q9zR-1" edge="1">
          <mxGeometry width="50" height="50" relative="1" as="geometry">
            <mxPoint x="490" y="200" as="sourcePoint" />
            <mxPoint x="80" y="160" as="targetPoint" />
          </mxGeometry>
        </mxCell>
        <mxCell id="1iKEoxfAAZQPxBv_pSPJ-61" value="" style="endArrow=none;html=1;rounded=0;exitX=1;exitY=1;exitDx=0;exitDy=0;entryX=1;entryY=0;entryDx=0;entryDy=0;endFill=0;" parent="1" source="1iKEoxfAAZQPxBv_pSPJ-39" edge="1">
          <mxGeometry width="50" height="50" relative="1" as="geometry">
            <mxPoint x="790" y="200" as="sourcePoint" />
            <mxPoint x="760" y="160" as="targetPoint" />
          </mxGeometry>
        </mxCell>
        <mxCell id="u5pXzfB2RRVTX9O-Q9zR-1" value="GoCB&lt;br&gt;Ref" style="rounded=0;whiteSpace=wrap;html=1;" vertex="1" parent="1">
          <mxGeometry x="240" y="160" width="40" height="40" as="geometry" />
        </mxCell>
        <mxCell id="u5pXzfB2RRVTX9O-Q9zR-2" value="TTL" style="rounded=0;whiteSpace=wrap;html=1;" vertex="1" parent="1">
          <mxGeometry x="280" y="160" width="20" height="40" as="geometry" />
        </mxCell>
        <mxCell id="u5pXzfB2RRVTX9O-Q9zR-3" value="AppID" style="rounded=0;whiteSpace=wrap;html=1;" vertex="1" parent="1">
          <mxGeometry x="300.00000000000006" y="160" width="40" height="40" as="geometry" />
        </mxCell>
        <mxCell id="u5pXzfB2RRVTX9O-Q9zR-4" value="&lt;font style=&quot;font-size: 12px;&quot;&gt;state&lt;br&gt;Num&lt;br&gt;&lt;/font&gt;" style="rounded=0;whiteSpace=wrap;html=1;" vertex="1" parent="1">
          <mxGeometry x="380.00000000000006" y="160" width="40" height="40" as="geometry" />
        </mxCell>
        <mxCell id="u5pXzfB2RRVTX9O-Q9zR-5" value="&lt;font style=&quot;&quot;&gt;&lt;font style=&quot;font-size: 12px;&quot;&gt;seq&lt;br&gt;&lt;/font&gt;Num&lt;br&gt;&lt;/font&gt;" style="rounded=0;whiteSpace=wrap;html=1;" vertex="1" parent="1">
          <mxGeometry x="420.00000000000006" y="160" width="40" height="40" as="geometry" />
        </mxCell>
        <mxCell id="u5pXzfB2RRVTX9O-Q9zR-6" value="Data" style="rounded=0;whiteSpace=wrap;html=1;" vertex="1" parent="1">
          <mxGeometry x="460.00000000000006" y="160" width="300" height="40" as="geometry" />
        </mxCell>
        <mxCell id="u5pXzfB2RRVTX9O-Q9zR-7" value="" style="endArrow=none;html=1;rounded=0;" edge="1" parent="1">
          <mxGeometry width="50" height="50" relative="1" as="geometry">
            <mxPoint x="240" y="215" as="sourcePoint" />
            <mxPoint x="240" y="205" as="targetPoint" />
          </mxGeometry>
        </mxCell>
        <mxCell id="u5pXzfB2RRVTX9O-Q9zR-8" value="" style="endArrow=classic;startArrow=classic;html=1;rounded=0;" edge="1" parent="1">
          <mxGeometry width="50" height="50" relative="1" as="geometry">
            <mxPoint x="240" y="210" as="sourcePoint" />
            <mxPoint x="280" y="210" as="targetPoint" />
          </mxGeometry>
        </mxCell>
        <mxCell id="u5pXzfB2RRVTX9O-Q9zR-9" value="" style="endArrow=classic;startArrow=classic;html=1;rounded=0;" edge="1" parent="1">
          <mxGeometry width="50" height="50" relative="1" as="geometry">
            <mxPoint x="300.00000000000006" y="210" as="sourcePoint" />
            <mxPoint x="340.00000000000006" y="210" as="targetPoint" />
          </mxGeometry>
        </mxCell>
        <mxCell id="u5pXzfB2RRVTX9O-Q9zR-10" value="" style="endArrow=none;html=1;rounded=0;" edge="1" parent="1">
          <mxGeometry width="50" height="50" relative="1" as="geometry">
            <mxPoint x="300.00000000000006" y="215" as="sourcePoint" />
            <mxPoint x="300.00000000000006" y="205" as="targetPoint" />
          </mxGeometry>
        </mxCell>
        <mxCell id="u5pXzfB2RRVTX9O-Q9zR-11" value="" style="endArrow=none;html=1;rounded=0;" edge="1" parent="1">
          <mxGeometry width="50" height="50" relative="1" as="geometry">
            <mxPoint x="340.00000000000006" y="215" as="sourcePoint" />
            <mxPoint x="340.00000000000006" y="205" as="targetPoint" />
          </mxGeometry>
        </mxCell>
        <mxCell id="u5pXzfB2RRVTX9O-Q9zR-12" value="2 Byte" style="text;html=1;strokeColor=none;fillColor=none;align=center;verticalAlign=middle;whiteSpace=wrap;rounded=0;fontSize=10;" vertex="1" parent="1">
          <mxGeometry x="300.00000000000006" y="215" width="40" height="10" as="geometry" />
        </mxCell>
        <mxCell id="u5pXzfB2RRVTX9O-Q9zR-13" value="2 Byte" style="text;html=1;strokeColor=none;fillColor=none;align=center;verticalAlign=middle;whiteSpace=wrap;rounded=0;fontSize=10;" vertex="1" parent="1">
          <mxGeometry x="240" y="215" width="40" height="10" as="geometry" />
        </mxCell>
        <mxCell id="u5pXzfB2RRVTX9O-Q9zR-14" value="1 &lt;br&gt;Byte" style="text;html=1;strokeColor=none;fillColor=none;align=center;verticalAlign=middle;whiteSpace=wrap;rounded=0;fontSize=10;spacing=2;spacingBottom=0;" vertex="1" parent="1">
          <mxGeometry x="280" y="215" width="20" height="22" as="geometry" />
        </mxCell>
        <mxCell id="u5pXzfB2RRVTX9O-Q9zR-15" value="" style="endArrow=classic;startArrow=classic;html=1;rounded=0;" edge="1" parent="1">
          <mxGeometry width="50" height="50" relative="1" as="geometry">
            <mxPoint x="340.00000000000006" y="210" as="sourcePoint" />
            <mxPoint x="380.00000000000006" y="210" as="targetPoint" />
          </mxGeometry>
        </mxCell>
        <mxCell id="u5pXzfB2RRVTX9O-Q9zR-16" value="n Byte" style="text;html=1;strokeColor=none;fillColor=none;align=center;verticalAlign=middle;whiteSpace=wrap;rounded=0;fontSize=10;" vertex="1" parent="1">
          <mxGeometry x="590" y="215" width="40" height="10" as="geometry" />
        </mxCell>
        <mxCell id="u5pXzfB2RRVTX9O-Q9zR-17" value="" style="endArrow=none;html=1;rounded=0;" edge="1" parent="1">
          <mxGeometry width="50" height="50" relative="1" as="geometry">
            <mxPoint x="380.00000000000006" y="215" as="sourcePoint" />
            <mxPoint x="380.00000000000006" y="205" as="targetPoint" />
          </mxGeometry>
        </mxCell>
        <mxCell id="u5pXzfB2RRVTX9O-Q9zR-18" value="" style="endArrow=classic;startArrow=classic;html=1;rounded=0;" edge="1" parent="1">
          <mxGeometry width="50" height="50" relative="1" as="geometry">
            <mxPoint x="380.00000000000006" y="210" as="sourcePoint" />
            <mxPoint x="420.00000000000006" y="210" as="targetPoint" />
          </mxGeometry>
        </mxCell>
        <mxCell id="u5pXzfB2RRVTX9O-Q9zR-19" value="" style="endArrow=none;html=1;rounded=0;" edge="1" parent="1">
          <mxGeometry width="50" height="50" relative="1" as="geometry">
            <mxPoint x="420.00000000000006" y="215" as="sourcePoint" />
            <mxPoint x="420.00000000000006" y="205" as="targetPoint" />
          </mxGeometry>
        </mxCell>
        <mxCell id="u5pXzfB2RRVTX9O-Q9zR-20" value="" style="endArrow=classic;startArrow=classic;html=1;rounded=0;" edge="1" parent="1">
          <mxGeometry width="50" height="50" relative="1" as="geometry">
            <mxPoint x="460.00000000000006" y="210" as="sourcePoint" />
            <mxPoint x="760" y="210" as="targetPoint" />
          </mxGeometry>
        </mxCell>
        <mxCell id="u5pXzfB2RRVTX9O-Q9zR-21" value="" style="endArrow=none;html=1;rounded=0;" edge="1" parent="1">
          <mxGeometry width="50" height="50" relative="1" as="geometry">
            <mxPoint x="459.89000000000004" y="215" as="sourcePoint" />
            <mxPoint x="459.89000000000004" y="205" as="targetPoint" />
          </mxGeometry>
        </mxCell>
        <mxCell id="u5pXzfB2RRVTX9O-Q9zR-22" value="" style="endArrow=classic;startArrow=classic;html=1;rounded=0;" edge="1" parent="1">
          <mxGeometry width="50" height="50" relative="1" as="geometry">
            <mxPoint x="420.00000000000006" y="210" as="sourcePoint" />
            <mxPoint x="460.00000000000006" y="210" as="targetPoint" />
          </mxGeometry>
        </mxCell>
        <mxCell id="u5pXzfB2RRVTX9O-Q9zR-23" value="" style="endArrow=none;html=1;rounded=0;" edge="1" parent="1">
          <mxGeometry width="50" height="50" relative="1" as="geometry">
            <mxPoint x="280" y="215" as="sourcePoint" />
            <mxPoint x="280" y="205" as="targetPoint" />
          </mxGeometry>
        </mxCell>
        <mxCell id="u5pXzfB2RRVTX9O-Q9zR-24" value="" style="endArrow=classic;startArrow=classic;html=1;rounded=0;" edge="1" parent="1">
          <mxGeometry width="50" height="50" relative="1" as="geometry">
            <mxPoint x="280.11" y="210" as="sourcePoint" />
            <mxPoint x="300.11000000000007" y="210" as="targetPoint" />
          </mxGeometry>
        </mxCell>
        <mxCell id="u5pXzfB2RRVTX9O-Q9zR-25" value="time-stamp" style="rounded=0;whiteSpace=wrap;html=1;" vertex="1" parent="1">
          <mxGeometry x="340.00000000000006" y="160" width="40" height="40" as="geometry" />
        </mxCell>
        <mxCell id="u5pXzfB2RRVTX9O-Q9zR-26" value="2 Byte" style="text;html=1;strokeColor=none;fillColor=none;align=center;verticalAlign=middle;whiteSpace=wrap;rounded=0;fontSize=10;" vertex="1" parent="1">
          <mxGeometry x="340.00000000000006" y="215" width="40" height="10" as="geometry" />
        </mxCell>
        <mxCell id="u5pXzfB2RRVTX9O-Q9zR-27" value="2 Byte" style="text;html=1;strokeColor=none;fillColor=none;align=center;verticalAlign=middle;whiteSpace=wrap;rounded=0;fontSize=10;" vertex="1" parent="1">
          <mxGeometry x="380.00000000000006" y="215" width="40" height="10" as="geometry" />
        </mxCell>
        <mxCell id="u5pXzfB2RRVTX9O-Q9zR-28" value="2 Byte" style="text;html=1;strokeColor=none;fillColor=none;align=center;verticalAlign=middle;whiteSpace=wrap;rounded=0;fontSize=10;" vertex="1" parent="1">
          <mxGeometry x="420.00000000000006" y="215" width="40" height="10" as="geometry" />
        </mxCell>
        <mxCell id="u5pXzfB2RRVTX9O-Q9zR-29" value="" style="endArrow=none;html=1;rounded=0;" edge="1" parent="1">
          <mxGeometry width="50" height="50" relative="1" as="geometry">
            <mxPoint x="760" y="215" as="sourcePoint" />
            <mxPoint x="760" y="205" as="targetPoint" />
          </mxGeometry>
        </mxCell>
        <mxCell id="u5pXzfB2RRVTX9O-Q9zR-30" value="SecTAG" style="rounded=0;whiteSpace=wrap;html=1;" vertex="1" parent="1">
          <mxGeometry x="199.86" y="90" width="160" height="40" as="geometry" />
        </mxCell>
        <mxCell id="u5pXzfB2RRVTX9O-Q9zR-31" value="" style="endArrow=none;html=1;rounded=0;" edge="1" parent="1">
          <mxGeometry width="50" height="50" relative="1" as="geometry">
            <mxPoint x="359.67" y="85" as="sourcePoint" />
            <mxPoint x="359.67" y="75" as="targetPoint" />
          </mxGeometry>
        </mxCell>
        <mxCell id="u5pXzfB2RRVTX9O-Q9zR-32" value="" style="endArrow=classic;startArrow=classic;html=1;rounded=0;" edge="1" parent="1">
          <mxGeometry width="50" height="50" relative="1" as="geometry">
            <mxPoint x="199.86" y="80" as="sourcePoint" />
            <mxPoint x="359.86" y="80" as="targetPoint" />
          </mxGeometry>
        </mxCell>
        <mxCell id="u5pXzfB2RRVTX9O-Q9zR-33" value="8 to 16 Byte" style="text;html=1;strokeColor=none;fillColor=none;align=center;verticalAlign=middle;whiteSpace=wrap;rounded=0;fontSize=10;" vertex="1" parent="1">
          <mxGeometry x="249.86" y="65" width="60" height="10" as="geometry" />
        </mxCell>
        <mxCell id="u5pXzfB2RRVTX9O-Q9zR-34" value="&lt;font style=&quot;font-size: 12px;&quot;&gt;Integrity Check Value&lt;/font&gt;" style="rounded=0;whiteSpace=wrap;html=1;" vertex="1" parent="1">
          <mxGeometry x="720" y="90" width="160" height="40" as="geometry" />
        </mxCell>
        <mxCell id="u5pXzfB2RRVTX9O-Q9zR-35" value="" style="endArrow=none;html=1;rounded=0;" edge="1" parent="1">
          <mxGeometry width="50" height="50" relative="1" as="geometry">
            <mxPoint x="720" y="85" as="sourcePoint" />
            <mxPoint x="720" y="75" as="targetPoint" />
          </mxGeometry>
        </mxCell>
        <mxCell id="u5pXzfB2RRVTX9O-Q9zR-36" value="" style="endArrow=classic;startArrow=classic;html=1;rounded=0;" edge="1" parent="1">
          <mxGeometry width="50" height="50" relative="1" as="geometry">
            <mxPoint x="720" y="80" as="sourcePoint" />
            <mxPoint x="880" y="80" as="targetPoint" />
          </mxGeometry>
        </mxCell>
        <mxCell id="u5pXzfB2RRVTX9O-Q9zR-37" value="8 to 16 Byte" style="text;html=1;strokeColor=none;fillColor=none;align=center;verticalAlign=middle;whiteSpace=wrap;rounded=0;fontSize=10;" vertex="1" parent="1">
          <mxGeometry x="720" y="65" width="160" height="10" as="geometry" />
        </mxCell>
        <mxCell id="u5pXzfB2RRVTX9O-Q9zR-38" value="" style="endArrow=none;html=1;rounded=0;" edge="1" parent="1">
          <mxGeometry width="50" height="50" relative="1" as="geometry">
            <mxPoint x="880" y="85" as="sourcePoint" />
            <mxPoint x="880" y="75" as="targetPoint" />
          </mxGeometry>
        </mxCell>
        <mxCell id="u5pXzfB2RRVTX9O-Q9zR-39" value="" style="endArrow=classic;startArrow=classic;html=1;rounded=0;" edge="1" parent="1">
          <mxGeometry width="50" height="50" relative="1" as="geometry">
            <mxPoint x="360" y="40" as="sourcePoint" />
            <mxPoint x="720" y="40" as="targetPoint" />
          </mxGeometry>
        </mxCell>
        <mxCell id="u5pXzfB2RRVTX9O-Q9zR-40" value="" style="endArrow=none;html=1;rounded=0;" edge="1" parent="1">
          <mxGeometry width="50" height="50" relative="1" as="geometry">
            <mxPoint x="360" y="45" as="sourcePoint" />
            <mxPoint x="360" y="35" as="targetPoint" />
          </mxGeometry>
        </mxCell>
        <mxCell id="u5pXzfB2RRVTX9O-Q9zR-41" value="" style="endArrow=none;html=1;rounded=0;" edge="1" parent="1">
          <mxGeometry width="50" height="50" relative="1" as="geometry">
            <mxPoint x="720" y="45" as="sourcePoint" />
            <mxPoint x="720" y="35" as="targetPoint" />
          </mxGeometry>
        </mxCell>
        <mxCell id="u5pXzfB2RRVTX9O-Q9zR-42" value="Secure Data" style="text;html=1;strokeColor=none;fillColor=none;align=center;verticalAlign=middle;whiteSpace=wrap;rounded=0;fontSize=10;" vertex="1" parent="1">
          <mxGeometry x="360" y="25" width="360" height="10" as="geometry" />
        </mxCell>
      </root>
    </mxGraphModel>
  </diagram>
</mxfile>
